HIERARCHY
ROOT Hips
{
	OFFSET -0.001795 -0.223333 0.028219
	CHANNELS 6 Xposition Yposition Zposition Zrotation Yrotation Xrotation 
	JOINT LeftUpLeg
	{
		OFFSET 0.069520 -0.091406 -0.006815
		CHANNELS 3 Zrotation Yrotation Xrotation
		JOINT LeftLeg
		{
			OFFSET 0.034277 -0.375199 -0.004496
			CHANNELS 3 Zrotation Yrotation Xrotation
			JOINT LeftFoot
			{
				OFFSET -0.013596 -0.397961 -0.043693
				CHANNELS 3 Zrotation Yrotation Xrotation
				JOINT LeftToe
				{
					OFFSET 0.026358 -0.055791 0.119288
					CHANNELS 3 Zrotation Yrotation Xrotation
					End Site
					{
						OFFSET 0.000000 0.000000 0.000000
					}
				}
			}
		}
	}
	JOINT RightUpLeg
	{
		OFFSET -0.067670 -0.090522 -0.004320
		CHANNELS 3 Zrotation Yrotation Xrotation
		JOINT RightLeg
		{
			OFFSET -0.038290 -0.382569 -0.008850
			CHANNELS 3 Zrotation Yrotation Xrotation
			JOINT RightFoot
			{
				OFFSET 0.015774 -0.398415 -0.042312
				CHANNELS 3 Zrotation Yrotation Xrotation
				JOINT RightToe
				{
					OFFSET -0.025372 -0.048144 0.123348
					CHANNELS 3 Zrotation Yrotation Xrotation
					End Site
					{
						OFFSET 0.000000 0.000000 0.000000
					}
				}
			}
		}
	}
	JOINT Spine
	{
		OFFSET -0.002533 0.108963 -0.026696
		CHANNELS 3 Zrotation Yrotation Xrotation
		JOINT Spine1
		{
			OFFSET 0.005487 0.135180 0.001092
			CHANNELS 3 Zrotation Yrotation Xrotation
			JOINT Spine2
			{
				OFFSET 0.001457 0.052922 0.025425
				CHANNELS 3 Zrotation Yrotation Xrotation
				JOINT Neck
				{
					OFFSET -0.002778 0.213870 -0.042857
					CHANNELS 3 Zrotation Yrotation Xrotation
					JOINT Head
					{
						OFFSET 0.005152 0.064970 0.051349
						CHANNELS 3 Zrotation Yrotation Xrotation
						End Site
						{
							OFFSET 0.000000 0.000000 0.000000
						}
					}
				}
				JOINT LeftShoulder
				{
					OFFSET 0.078845 0.121749 -0.034090
					CHANNELS 3 Zrotation Yrotation Xrotation
					JOINT LeftArm
					{
						OFFSET 0.090977 0.030469 -0.008868
						CHANNELS 3 Zrotation Yrotation Xrotation
						JOINT LeftForeArm
						{
							OFFSET 0.259612 -0.012772 -0.027456
							CHANNELS 3 Zrotation Yrotation Xrotation
							JOINT LeftHand
							{
								OFFSET 0.249234 0.008986 -0.001171
								CHANNELS 3 Zrotation Yrotation Xrotation
								End Site
								{
									OFFSET 0.000000 0.000000 0.000000
								}
							}
						}
					}
				}
				JOINT RightShoulder
				{
					OFFSET -0.081759 0.118833 -0.038615
					CHANNELS 3 Zrotation Yrotation Xrotation
					JOINT RightArm
					{
						OFFSET -0.096012 0.032551 -0.009143
						CHANNELS 3 Zrotation Yrotation Xrotation
						JOINT RightForeArm
						{
							OFFSET -0.253742 -0.013329 -0.021401
							CHANNELS 3 Zrotation Yrotation Xrotation
							JOINT RightHand
							{
								OFFSET -0.255298 0.007772 -0.005559
								CHANNELS 3 Zrotation Yrotation Xrotation
								End Site
								{
									OFFSET 0.000000 0.000000 0.000000
								}
							}
						}
					}
				}
			}
		}
	}
}
MOTION
Frames: 16
Frame Time: 0.05000000
-1.605305 0.861674 -8.458119 -0.119098 6.719681 -15.095591 -5.861025 -1.915759 -8.646893 -7.983359 1.629144 87.672062 2.311263 7.406556 8.930083 0.000000 0.000000 0.000000 11.869481 2.105466 -4.967239 -4.209059 2.566096 33.249038 -6.151432 -2.561098 -37.711582 0.000000 0.000000 0.000000 -0.393934 -0.582701 14.396238 0.266932 0.406467 -15.944922 -0.332400 0.015269 28.266436 4.881731 0.271495 -35.160113 0.000000 0.000000 0.000000 25.380661 4.454271 1.356073 -95.157695 -16.629992 -0.137581 -13.996084 -26.831922 4.822875 0.000000 0.000000 0.000000 -24.224673 -7.566505 -0.193717 98.607287 4.051175 -6.113654 7.072950 19.886726 1.992053 0.000000 0.000000 0.000000 
-1.636296 0.868730 -8.847392 1.837730 3.357495 -12.925117 -4.273091 -3.757310 -23.584270 -9.750396 5.782134 85.671892 6.094855 13.009844 4.421399 0.000000 0.000000 0.000000 9.194872 0.076278 3.591933 -4.676283 2.472750 23.474628 -7.126360 2.251090 -41.328053 0.000000 0.000000 0.000000 -1.796880 -0.463443 12.457032 -0.518085 0.610858 -15.872581 1.046809 5.156718 27.822819 4.813484 0.803242 -34.984298 0.000000 0.000000 0.000000 25.130714 5.013243 2.141033 -94.582444 -14.187830 -5.541405 -16.475209 -21.408027 4.267812 0.000000 0.000000 0.000000 -25.022331 -6.936465 -0.925771 99.417340 6.423426 -0.033402 4.936369 24.604653 2.076033 0.000000 0.000000 0.000000 
-1.653464 0.868680 -9.230705 3.666687 -0.600476 -11.777957 -3.322153 -4.452527 -32.762585 -9.589888 6.431053 74.279542 8.680049 16.776729 -3.502044 0.000000 0.000000 0.000000 7.961724 -1.478022 12.089252 -8.217807 2.771053 14.277969 -7.784169 7.184254 -41.665648 0.000000 0.000000 0.000000 -2.537818 -0.390079 11.356337 -1.302018 0.808962 -15.741672 1.950949 9.641419 28.110744 4.533587 1.314488 -34.906449 0.000000 0.000000 0.000000 23.993128 6.092131 2.478372 -93.632409 -10.854478 -10.811593 -16.282156 -17.304751 3.374558 0.000000 0.000000 0.000000 -25.825096 -6.475527 -1.508231 98.468148 10.716599 7.205526 2.999868 29.868876 2.080431 0.000000 0.000000 0.000000 
-1.644626 0.861648 -9.587089 4.726471 -3.884885 -10.270072 -2.857706 -4.315964 -36.233064 -7.031242 3.521300 53.490330 8.949562 16.563765 -12.819639 0.000000 0.000000 0.000000 3.642100 -2.138758 19.143656 -6.251525 1.430755 6.563640 -8.271903 10.029310 -41.050795 0.000000 0.000000 0.000000 -3.037362 -0.309998 8.997038 -1.971902 0.978352 -15.185285 2.908966 12.310488 28.902860 4.078142 1.603675 -33.378096 0.000000 0.000000 0.000000 23.990382 7.225501 2.555561 -93.036706 -6.667358 -15.437851 -14.941506 -15.875617 2.863203 0.000000 0.000000 0.000000 -26.571800 -5.408865 -1.714629 97.328471 16.368634 14.359875 -1.879893 32.356962 0.952932 0.000000 0.000000 0.000000 
-1.627801 0.850007 -9.887391 4.075947 -6.900692 -9.163769 -0.872215 -3.213406 -36.197257 -4.518233 1.259209 30.202773 7.716822 13.634682 -14.240931 0.000000 0.000000 0.000000 1.122081 -2.204132 24.702706 -4.597038 0.734431 2.446351 -8.610737 12.752264 -41.039909 0.000000 0.000000 0.000000 -2.302754 -0.263958 7.438273 -2.381103 1.075843 -14.884695 4.117174 14.006211 29.217441 4.343908 1.486125 -32.165434 0.000000 0.000000 0.000000 23.831806 8.839231 2.398439 -92.050920 -2.466567 -19.291454 -15.119960 -12.459742 2.235749 0.000000 0.000000 0.000000 -27.746161 -4.333167 -1.733522 97.350300 21.738696 20.878046 -9.879535 32.980418 -1.207141 0.000000 0.000000 0.000000 
-1.613292 0.835843 -10.070248 4.543183 -9.203036 -6.003497 -0.642514 -3.035964 -38.629339 -3.548602 0.682114 19.121747 6.393626 11.486373 -9.612363 0.000000 0.000000 0.000000 -0.044293 -1.855110 24.809910 -7.489960 1.570581 6.860042 -9.301488 13.376568 -42.909192 0.000000 0.000000 0.000000 -2.230826 -0.132602 2.849671 -2.512835 1.082357 -14.576569 4.471688 15.802401 29.621496 5.114433 1.300757 -32.666847 0.000000 0.000000 0.000000 23.041470 9.760613 2.213159 -90.365817 1.447490 -22.565621 -14.899329 -9.929925 1.723975 0.000000 0.000000 0.000000 -27.428797 -4.753357 -2.011647 97.769635 23.588043 24.313320 -15.374548 34.065289 -2.771457 0.000000 0.000000 0.000000 
-1.589038 0.827108 -10.084440 5.240446 -8.761175 -4.124588 -2.702732 -4.050454 -41.064111 -4.898908 1.316275 25.551198 6.955294 12.885663 -9.846993 0.000000 0.000000 0.000000 -0.977080 -1.645323 24.684885 -9.052973 2.898824 14.745400 -8.666669 12.270419 -41.248032 0.000000 0.000000 0.000000 -3.262613 -0.068209 0.161059 -2.391143 1.043990 -14.610297 4.357756 15.620252 29.243666 5.147472 1.353874 -33.504989 0.000000 0.000000 0.000000 22.391028 10.155624 2.017763 -88.386938 5.101335 -24.741278 -15.572463 -10.080153 1.777820 0.000000 0.000000 0.000000 -26.958816 -5.192686 -2.071998 99.493826 22.196239 23.850261 -17.257877 34.693471 -3.346659 0.000000 0.000000 0.000000 
-1.539591 0.828859 -10.000036 6.172592 -8.572652 -3.144779 -5.986738 -5.464531 -42.329680 -4.589611 1.618946 35.117311 6.511132 12.382494 -5.584714 0.000000 0.000000 0.000000 -2.480619 -1.143200 21.366404 -9.282096 5.641245 31.214240 -5.903692 14.146022 -33.154212 0.000000 0.000000 0.000000 -4.373574 -0.045399 -1.774349 -2.462455 1.067856 -14.579646 3.879195 14.263685 28.574097 4.890685 1.375523 -34.763461 0.000000 0.000000 0.000000 21.261773 10.838285 1.403281 -86.612781 6.089037 -23.754983 -14.004091 -9.262281 1.483340 0.000000 0.000000 0.000000 -25.639672 -5.787320 -1.830724 100.930440 18.445221 18.892866 -14.524661 37.351790 -2.734941 0.000000 0.000000 0.000000 
-1.487887 0.836988 -10.059193 7.520061 -7.775790 -3.609404 -9.745803 -6.623639 -39.401112 -3.349827 1.252400 40.354496 5.331336 9.407559 -7.370817 0.000000 0.000000 0.000000 -4.436383 -0.470317 11.687622 -4.245576 7.601793 56.289029 0.040899 13.697598 -15.237839 0.000000 0.000000 0.000000 -5.790987 -0.096847 -1.512257 -2.136070 0.964997 -14.628557 2.733270 12.691699 28.150213 5.002670 1.183309 -35.495605 0.000000 0.000000 0.000000 22.083863 9.844846 1.455091 -87.582568 4.628175 -22.031598 -13.203671 -10.973834 1.701032 0.000000 0.000000 0.000000 -25.042352 -6.616692 -1.597214 100.630933 16.314420 14.833689 -8.483362 36.966936 -0.828546 0.000000 0.000000 0.000000 
-1.458670 0.850240 -10.319245 7.468855 -5.795690 -4.913177 -13.320081 -6.315371 -29.328191 -1.824767 0.311952 37.111785 5.641754 7.889980 -17.183500 0.000000 0.000000 0.000000 -4.096999 -0.061000 0.998360 1.624770 5.439483 74.480667 1.689513 7.339170 -4.123867 0.000000 0.000000 0.000000 -6.038328 -0.149829 0.624762 -1.912578 0.919765 -15.104517 1.305622 8.706141 28.429013 4.203054 1.043627 -35.184591 0.000000 0.000000 0.000000 22.237155 8.353416 1.011102 -88.743082 0.651736 -16.786052 -13.209064 -14.473579 2.306491 0.000000 0.000000 0.000000 -24.441269 -6.351483 -0.822868 100.476322 15.234785 9.976791 -2.283911 33.205168 0.974381 0.000000 0.000000 0.000000 
-1.448243 0.863983 -10.659802 6.737668 -4.391683 -7.280637 -16.011848 -4.370018 -15.684555 0.946715 -0.952644 29.350525 6.087081 6.545823 -26.130959 0.000000 0.000000 0.000000 -2.810427 0.818674 -11.338837 4.594576 3.134355 86.161326 0.873980 1.540193 1.183148 0.000000 0.000000 0.000000 -5.433586 -0.215143 4.258491 -1.449727 0.787964 -15.491437 -0.124173 5.473433 28.470303 3.569476 0.945274 -35.463095 0.000000 0.000000 0.000000 23.169900 6.504912 0.804766 -89.853768 -5.185637 -9.956087 -11.870396 -17.727074 2.672543 0.000000 0.000000 0.000000 -24.445536 -6.418814 -0.152347 100.473830 14.219010 5.667575 3.177310 28.190470 2.047605 0.000000 0.000000 0.000000 
-1.438752 0.874365 -11.003672 4.844473 -1.703390 -9.546570 -15.603490 -1.390068 -1.778740 3.592323 -1.648176 18.964850 6.165332 3.091807 -31.080695 0.000000 0.000000 0.000000 -2.214714 1.776727 -21.606892 6.826374 -0.876721 87.576032 -1.978078 -3.054963 -4.231197 0.000000 0.000000 0.000000 -3.556343 -0.296853 8.148144 -0.943795 0.669773 -15.866471 -1.537235 1.239525 28.202509 3.519856 0.486589 -34.932311 0.000000 0.000000 0.000000 22.743363 5.086138 0.309368 -90.449869 -10.163823 -3.369133 -9.121208 -20.744481 2.683377 0.000000 0.000000 0.000000 -24.011848 -6.790645 0.504128 99.813540 11.923706 -0.204346 6.866838 25.018446 2.557989 0.000000 0.000000 0.000000 
-1.439449 0.877300 -11.361223 3.729099 0.923650 -11.624170 -14.274149 1.488160 11.725997 4.830071 -1.344141 8.777999 6.227390 -0.402946 -32.900482 0.000000 0.000000 0.000000 -2.536058 2.209429 -28.841288 6.859750 -2.015116 79.347250 -4.540397 -6.098965 -14.011702 0.000000 0.000000 0.000000 -2.904572 -0.393892 11.229136 -0.492721 0.559040 -15.862949 -2.617706 -2.434906 28.062765 2.998704 0.310715 -34.540467 0.000000 0.000000 0.000000 24.099820 4.312733 -0.092721 -90.022707 -14.072509 2.157672 -8.369774 -25.520373 3.224693 0.000000 0.000000 0.000000 -24.028775 -7.218321 1.097989 98.466005 9.426701 -5.555425 9.157501 22.770607 2.737332 0.000000 0.000000 0.000000 
-1.454298 0.872920 -11.717789 2.595563 3.872257 -11.122026 -12.533966 3.123081 20.121727 6.415331 -1.140285 3.124969 6.472926 -3.844545 -34.137846 0.000000 0.000000 0.000000 -2.730866 2.266551 -33.385335 6.309291 -2.226448 62.262673 -6.015474 -8.432213 -20.861026 0.000000 0.000000 0.000000 -2.612379 -0.414057 11.481015 0.234867 0.352752 -15.513683 -3.442301 -6.406346 28.478525 2.906965 -0.045114 -34.524018 0.000000 0.000000 0.000000 24.310342 3.834099 -0.685102 -88.557718 -18.228838 7.972885 -5.471081 -30.529407 3.180502 0.000000 0.000000 0.000000 -22.974155 -7.132297 1.573356 96.216367 7.263813 -9.912866 11.582545 21.208582 2.933106 0.000000 0.000000 0.000000 
-1.474266 0.860265 -12.054249 1.911901 5.861955 -9.761190 -10.378394 4.014424 26.560954 7.021917 -0.782138 -0.990814 6.428555 -8.436836 -35.141626 0.000000 0.000000 0.000000 -3.821126 1.835543 -35.845308 5.478000 -1.460793 40.074640 -5.930479 -7.459663 -23.304314 0.000000 0.000000 0.000000 -2.490893 -0.387016 10.449492 0.730598 0.217763 -15.471447 -4.380466 -9.556048 28.949337 2.605682 -0.244002 -34.373498 0.000000 0.000000 0.000000 24.491427 3.584534 -1.199609 -88.297246 -21.095918 12.514473 0.513119 -35.903565 1.994707 0.000000 0.000000 0.000000 -22.854512 -8.441401 1.834961 95.550702 3.741273 -15.015372 13.337158 18.752587 2.799411 0.000000 0.000000 0.000000 
-1.496881 0.849664 -12.320865 1.567698 6.737178 -6.733730 -7.891832 3.852614 27.939517 5.583601 -0.665787 0.187333 6.806541 -10.073501 -36.739137 0.000000 0.000000 0.000000 -5.374193 1.312465 -37.365193 6.578490 -1.520602 24.339393 -5.812249 -7.725654 -23.675218 0.000000 0.000000 0.000000 -2.075367 -0.264773 6.800177 1.056834 0.113518 -14.934414 -5.196849 -11.542469 28.882777 2.239423 -0.290969 -34.032470 0.000000 0.000000 0.000000 24.169112 3.195322 -1.460048 -89.060603 -23.244501 16.178548 6.715772 -38.753007 0.110570 0.000000 0.000000 0.000000 -22.598857 -9.257844 1.912632 94.536888 0.400561 -18.821087 13.368541 18.121913 2.651461 0.000000 0.000000 0.000000 
